<?xml version="1.0" encoding="UTF-8" standalone="no"?>
<!-- Created with Inkscape (http://www.inkscape.org/) -->

<svg
   width="100mm"
   height="100mm"
   viewBox="0 0 100 100"
   version="1.1"
   id="svg1"
   inkscape:version="1.3.2 (091e20ef0f, 2023-11-25, custom)"
   sodipodi:docname="Icon.svg"
   inkscape:export-filename="Icon.png"
   inkscape:export-xdpi="130.048"
   inkscape:export-ydpi="130.048"
   xmlns:inkscape="http://www.inkscape.org/namespaces/inkscape"
   xmlns:sodipodi="http://sodipodi.sourceforge.net/DTD/sodipodi-0.dtd"
   xmlns="http://www.w3.org/2000/svg"
   xmlns:svg="http://www.w3.org/2000/svg">
  <sodipodi:namedview
     id="namedview1"
     pagecolor="#ffffff"
     bordercolor="#000000"
     borderopacity="0.25"
     inkscape:showpageshadow="2"
     inkscape:pageopacity="0.0"
     inkscape:pagecheckerboard="0"
     inkscape:deskcolor="#d1d1d1"
     inkscape:document-units="mm"
     inkscape:zoom="1.4324916"
     inkscape:cx="319.72264"
     inkscape:cy="138.91879"
     inkscape:window-width="1920"
     inkscape:window-height="1008"
     inkscape:window-x="0"
     inkscape:window-y="0"
     inkscape:window-maximized="1"
     inkscape:current-layer="layer1" />
  <defs
     id="defs1" />
  <g
     inkscape:label="Layer 1"
     inkscape:groupmode="layer"
     id="layer1">
    <rect
       style="display:inline;fill:#bb0000;fill-opacity:1;stroke-width:0.265;stroke-dasharray:none;paint-order:stroke fill markers"
       id="rect1"
       width="80"
       height="80"
       x="10"
       y="10"
       rx="10"
       ry="10" />
    <path
       d="m 50.000437,49.488495 0.872716,1.669259 c 1.454482,2.785741 2.700399,5.123242 3.770684,7.092246 h -9.281251 c 1.067537,-1.969004 2.313443,-4.309249 3.767936,-7.095 z M 34.654265,39.907498 c -7.437077,4.405505 -13.392227,10.298754 -15.436741,12.839754 -3.466053,4.303751 -2.796446,10.612249 1.501135,14.085502 4.294844,3.473242 10.590285,2.802245 14.056349,-1.50426 1.70971,-2.122996 5.79324,-9.641498 9.492564,-16.722747 -4.078043,-1.856252 -7.848718,-4.762996 -9.613307,-8.698249 z M 50.069038,83 c 3.065397,0 5.329449,-3.456748 7.039148,-8.25 H 43.02989 C 44.742338,79.543252 47.003653,83 50.069038,83 Z M 80.783337,52.747252 c -2.047252,-2.541 -8.002403,-8.434249 -15.436731,-12.839754 -1.764601,3.935253 -5.532523,6.844751 -9.613315,8.698249 3.699324,7.081249 7.782851,14.599751 9.492562,16.722747 3.466064,4.303751 9.761505,4.977502 14.056348,1.50426 4.294844,-3.473253 4.9672,-9.781751 1.501136,-14.085502 z M 42.288922,63.750003 c -0.614759,1.056001 -1.122416,1.90025 -1.550528,2.582243 0.208584,0.984491 0.433557,1.960751 0.669628,2.917751 h 17.322074 c 0.222276,-0.904773 0.433558,-1.825998 0.633949,-2.755496 -0.447353,-0.706771 -0.990753,-1.600505 -1.652073,-2.744498 z m 14.533863,-38.65675 c 0.07157,-0.396001 0.109738,-0.800212 0.109738,-1.218256 C 56.932523,20.085495 53.853414,17 50.071756,17 c -3.781659,0 -6.860778,3.085495 -6.860778,6.874997 0,0.407017 0.03526,0.805719 0.104241,1.193497 0.315626,1.353001 1.591695,2.931503 6.756486,2.931503 5.134595,0 6.427167,-1.561997 6.750997,-2.906744 z M 50.071788,33.5 c -4.871154,0 -7.86519,-1.24025 -9.68192,-2.928748 -0.82324,1.353001 -1.295321,2.876499 -1.295321,4.457744 0,6.352506 9.215389,9.350008 10.266465,9.671755 l 0.710806,0.217228 0.710806,-0.217228 c 1.051066,-0.321789 10.266455,-3.319249 10.266455,-9.671755 0,-1.581245 -0.474736,-3.104743 -1.29531,-4.457744 C 57.937039,32.262495 54.945741,33.5 50.07185,33.5 Z"
       id="path1"
       style="fill:#ffffff;fill-opacity:1;stroke-width:2.74715" />
  </g>
</svg>
